<?xml version="1.0" encoding="UTF-8"?>
<svg width="596px" height="596px" viewBox="0 0 596 596" version="1.1" xmlns="http://www.w3.org/2000/svg" xmlns:xlink="http://www.w3.org/1999/xlink">
    <!-- Generator: Sketch 41.2 (35397) - http://www.bohemiancoding.com/sketch -->
    <title>favicon</title>
    <desc>Created with Sketch.</desc>
    <defs></defs>
    <g id="Page-1" stroke="none" stroke-width="1" fill="none" fill-rule="evenodd">
        <g id="favicon" transform="translate(8.000000, 8.000000)">
            <path d="M336.4,461.5 L295.3,504.4 L243,461.5 C243,461.5 242.5,428.3 242.5,397 C242.5,369 290.6,359 290.6,359 C298.6,360.5 337,369 337,397 C337,428.3 336.4,461.5 336.4,461.5 L336.4,461.5 Z M435.7,355 C423.6,337 387.4,285.8 360.6,278.2 C360.6,237.9 362.3,163.3 307.1,163.3 L273.3,163.3 C218.1,163.3 219.8,237.9 219.8,278.2 C192.9,285.7 156.8,336.9 144.6,355 L79.9,290.3 L290.2,79.9 L500.5,290.2 L435.7,355 Z M290.2,580 L580,290.2 L290.2,0.4 L0.4,290.2 L290.2,580 Z" id="Shape" fill="#44BDDF"></path>
            <path d="M336.4,461.5 L295.3,504.4 L243,461.5 C243,461.5 242.5,428.3 242.5,397 C242.5,369 290.6,359 290.6,359 C298.6,360.5 337,369 337,397 C337,428.3 336.4,461.5 336.4,461.5 Z M435.7,355 C423.6,337 387.4,285.8 360.6,278.2 C360.6,237.9 362.3,163.3 307.1,163.3 L273.3,163.3 C218.1,163.3 219.8,237.9 219.8,278.2 C192.9,285.7 156.8,336.9 144.6,355 L79.9,290.3 L290.2,79.9 L500.5,290.2 L435.7,355 Z M290.2,580 L580,290.2 L290.2,0.4 L0.4,290.2 L290.2,580 Z" id="Shape" stroke="#003781" stroke-width="11.1393"></path>
        </g>
    </g>
</svg>