<?xml version="1.0" encoding="UTF-8"?>
<svg width="624px" height="624px" viewBox="0 0 624 624" version="1.1" xmlns="http://www.w3.org/2000/svg" xmlns:xlink="http://www.w3.org/1999/xlink">
    <!-- Generator: Sketch 43.2 (39069) - http://www.bohemiancoding.com/sketch -->
    <title>boss</title>
    <desc>Created with Sketch.</desc>
    <defs></defs>
    <g id="Page-1" stroke="none" stroke-width="1" fill="none" fill-rule="evenodd">
        <g id="boss" transform="translate(6.000000, 14.000000)">
            <path d="M491.5,361.7 C460.9,386.4 391.3,382.1 364.9,298.5 C345.9,238.7 343.8,199.4 374.4,174.7 C473.2,146.4 487,173.4 517.8,234.1 C548.6,294.7 522.1,337 491.5,361.7 M304.4,471.4 C236.9,471.4 280.9,402.3 280.9,389.4 C280.9,376.4 291.4,365.9 304.4,365.9 C317.4,365.9 327.9,376.4 327.9,389.4 C327.8,402.3 380.7,471.4 304.4,471.4 M247.5,298.4 C221,382 151.5,386.3 120.9,361.6 C90.3,336.9 63.8,294.6 94.6,233.9 C125.4,173.3 139.2,146.3 238,174.5 C268.7,199.4 266.5,238.7 247.5,298.4 M612.3,364.2 L612.3,241.1 C612.3,118 541.9,0.8 312.9,0.8 L299.4,0.8 C70.5,0.8 0,118 0,241.1 L0,364.2 C0,396.4 9.4,431 49.9,453.3 C90.4,475.6 137.9,490.2 152.6,504.9 C167.3,519.6 176.1,551.8 176.1,572.3 C176.1,592.8 193.7,595.7 193.7,595.7 L267.1,595.7 L345.2,595.7 L418.5,595.7 C418.5,595.7 436.1,592.8 436.1,572.3 C436.1,551.8 444.9,519.6 459.6,504.9 C474.3,490.2 521.8,475.6 562.3,453.3 C602.9,431 612.3,396.4 612.3,364.2" id="Shape" fill="#FDE775" fill-rule="nonzero"></path>
            <path d="M491.5,361.7 C460.9,386.4 391.3,382.1 364.9,298.5 C345.9,238.7 343.8,199.4 374.4,174.7 C473.2,146.4 487,173.4 517.8,234.1 C548.6,294.7 522.1,337 491.5,361.7 Z M304.4,471.4 C236.9,471.4 280.9,402.3 280.9,389.4 C280.9,376.4 291.4,365.9 304.4,365.9 C317.4,365.9 327.9,376.4 327.9,389.4 C327.8,402.3 380.7,471.4 304.4,471.4 Z M247.5,298.4 C221,382 151.5,386.3 120.9,361.6 C90.3,336.9 63.8,294.6 94.6,233.9 C125.4,173.3 139.2,146.3 238,174.5 C268.7,199.4 266.5,238.7 247.5,298.4 Z M612.3,364.2 L612.3,241.1 C612.3,118 541.9,0.8 312.9,0.8 L299.4,0.8 C70.5,0.8 0,118 0,241.1 L0,364.2 C0,396.4 9.4,431 49.9,453.3 C90.4,475.6 137.9,490.2 152.6,504.9 C167.3,519.6 176.1,551.8 176.1,572.3 C176.1,592.8 193.7,595.7 193.7,595.7 L267.1,595.7 L345.2,595.7 L418.5,595.7 C418.5,595.7 436.1,592.8 436.1,572.3 C436.1,551.8 444.9,519.6 459.6,504.9 C474.3,490.2 521.8,475.6 562.3,453.3 C602.9,431 612.3,396.4 612.3,364.2 Z" id="Shape" stroke="#AA8B49" stroke-width="11.1393"></path>
        </g>
    </g>
</svg>