<?xml version="1.0" encoding="utf-8"?>
<svg version="1.1" xmlns="http://www.w3.org/2000/svg" xmlns:xlink="http://www.w3.org/1999/xlink" x="0px" y="0px"
	 viewBox="0 0 1066.4 1066.4" enable-background="new 0 0 1066.4 1066.4" xml:space="preserve">
<path fill="#F49F13" d="M579.4,704.5l-41.1,42.9L486,704.5c0,0-0.5-33.2-0.5-64.5c0-28,48.1-38,48.1-38c8,1.5,46.4,10,46.4,38
	C579.9,671.3,579.4,704.5,579.4,704.5 M678.8,598c-12.1-18-48.3-69.2-75.2-76.8c0-40.2,1.7-114.9-53.5-114.9h-33.8
	c-55.2,0-53.5,74.6-53.5,114.9c-26.9,7.5-63,58.7-75.1,76.8l-64.8-64.8l210.3-210.3l210.4,210.3L678.8,598z M533.2,823L823,533.2
	L533.2,243.4L243.4,533.2L533.2,823z"/>
<path fill="none" stroke="#AA8B49" stroke-width="11.1393" d="M579.4,704.5l-41.1,42.9L486,704.5c0,0-0.5-33.2-0.5-64.5
	c0-28,48.1-38,48.1-38c8,1.5,46.4,10,46.4,38C579.9,671.3,579.4,704.5,579.4,704.5z M678.8,598c-12.1-18-48.3-69.2-75.2-76.8
	c0-40.2,1.7-114.9-53.5-114.9h-33.8c-55.2,0-53.5,74.6-53.5,114.9c-26.9,7.5-63,58.7-75.1,76.8l-64.8-64.8l210.3-210.3l210.4,210.3
	L678.8,598z M533.2,823L823,533.2L533.2,243.4L243.4,533.2L533.2,823z"/>
</svg>